<?xml version="1.0" standalone="no"?>
<!DOCTYPE svg PUBLIC "-//W3C//DTD SVG 20010904//EN"
 "http://www.w3.org/TR/2001/REC-SVG-20010904/DTD/svg10.dtd">
<svg version="1.0" xmlns="http://www.w3.org/2000/svg"
 width="512.000000pt" height="512.000000pt" viewBox="0 0 512.000000 512.000000"
 preserveAspectRatio="xMidYMid meet">
<metadata>
Created by potrace 1.11, written by Peter Selinger 2001-2013
</metadata>
<g transform="translate(0.000000,512.000000) scale(0.100000,-0.100000)"
fill="#000000" stroke="none">
<path d="M2379 5116 c-2 -2 -38 -6 -79 -10 -64 -6 -213 -30 -315 -51 -102 -21
-327 -94 -429 -139 -40 -18 -66 -22 -121 -20 -58 2 -79 -1 -120 -22 -55 -27
-109 -83 -125 -129 -6 -19 -29 -42 -59 -61 l-48 -32 -179 -4 c-170 -3 -182 -5
-234 -30 -61 -30 -117 -83 -150 -143 -32 -57 -33 -63 -39 -255 l-6 -175 -51
-76 c-52 -78 -138 -226 -166 -289 -63 -137 -79 -175 -106 -250 -72 -200 -117
-399 -139 -610 -15 -139 -8 -503 11 -615 3 -16 8 -43 10 -60 43 -309 186 -678
377 -975 l68 -105 3 -280 3 -280 30 -58 c36 -72 106 -137 177 -164 50 -20 74
-21 401 -22 l347 -1 73 -36 c108 -52 376 -139 517 -168 216 -43 291 -50 525
-51 217 0 307 8 480 41 44 8 91 18 105 20 104 20 389 117 475 163 l50 26 365
5 c347 5 367 6 412 27 66 30 133 96 165 162 l28 56 3 280 3 280 71 109 c159
246 285 550 348 834 43 195 55 313 55 547 0 193 -3 251 -16 330 -4 28 -10 66
-13 85 -2 19 -10 60 -16 90 -6 30 -14 66 -16 80 -11 55 -56 205 -88 292 -74
202 -145 344 -267 533 l-57 90 -4 175 c-3 153 -6 181 -25 222 -30 65 -92 129
-160 164 -57 28 -62 29 -237 32 -180 4 -180 4 -222 33 -28 19 -46 41 -54 65
-14 41 -73 104 -121 130 -25 13 -59 18 -124 19 -76 2 -101 7 -160 32 -68 29
-241 89 -281 98 -10 2 -57 13 -104 25 -47 12 -96 24 -110 26 -14 2 -38 6 -55
8 -16 3 -50 8 -75 11 -25 4 -56 9 -70 11 -29 6 -456 15 -461 10z"/>
</g>
</svg>
